<?xml version="1.0" encoding="utf-8"?>
<!-- Generator: Adobe Illustrator 25.0.0, SVG Export Plug-In . SVG Version: 6.00 Build 0)  -->
<svg version="1.1" id="Layer_1" xmlns="http://www.w3.org/2000/svg" xmlns:xlink="http://www.w3.org/1999/xlink" x="0px" y="0px"
	 viewBox="0 0 150 150" style="enable-background:new 0 0 150 150;" xml:space="preserve">
<style type="text/css">
	.st0{fill:#FFFFFF;filter:url(#Adobe_OpacityMaskFilter);}
	.st1{mask:url(#path-1-outside-1_1_);fill:none;stroke:#000000;stroke-width:5;stroke-opacity:0.27;}
	.st2{fill:#FFFFFF;filter:url(#Adobe_OpacityMaskFilter_1_);}
	.st3{mask:url(#path-2-outside-2_1_);fill:none;stroke:#000000;stroke-width:5;stroke-opacity:0.27;}
</style>
<g>
	<defs>
		<filter id="Adobe_OpacityMaskFilter" filterUnits="userSpaceOnUse" x="6.4" y="27" width="93.6" height="96.1">
			<feColorMatrix  type="matrix" values="1 0 0 0 0  0 1 0 0 0  0 0 1 0 0  0 0 0 1 0"/>
		</filter>
	</defs>
	<mask maskUnits="userSpaceOnUse" x="6.4" y="27" width="93.6" height="96.1" id="path-1-outside-1_1_">
		<rect x="6.4" y="27" class="st0" width="93.6" height="96.1"/>
		<path d="M97.5,75c0,9-2.6,17.8-7.5,25.3c-4.9,7.5-11.8,13.3-19.9,16.8c-8.1,3.4-17,4.3-25.6,2.6c-8.6-1.8-16.5-6.1-22.7-12.5
			c-6.2-6.4-10.4-14.5-12.1-23.3c-1.7-8.8-0.8-18,2.5-26.3s9-15.4,16.3-20.4c7.3-5,15.8-7.7,24.6-7.7V75H97.5z"/>
	</mask>
	<path class="st1" d="M97.5,75c0,9-2.6,17.8-7.5,25.3c-4.9,7.5-11.8,13.3-19.9,16.8c-8.1,3.4-17,4.3-25.6,2.6
		c-8.6-1.8-16.5-6.1-22.7-12.5c-6.2-6.4-10.4-14.5-12.1-23.3c-1.7-8.8-0.8-18,2.5-26.3s9-15.4,16.3-20.4c7.3-5,15.8-7.7,24.6-7.7V75
		H97.5z"/>
	<defs>
		<filter id="Adobe_OpacityMaskFilter_1_" filterUnits="userSpaceOnUse" x="76.4" y="27" width="67.2" height="67.3">
			<feColorMatrix  type="matrix" values="1 0 0 0 0  0 1 0 0 0  0 0 1 0 0  0 0 0 1 0"/>
		</filter>
	</defs>
	<mask maskUnits="userSpaceOnUse" x="76.4" y="27" width="67.2" height="67.3" id="path-2-outside-2_1_">
		<rect x="76.1" y="26.9" class="st2" width="67.5" height="67.5"/>
		<path d="M78.9,60.8c0-6.2,1.8-12.2,5.2-17.3c3.4-5.1,8.3-9.1,13.9-11.5c5.7-2.4,11.9-3,18-1.8c6,1.2,11.6,4.1,15.9,8.5
			c4.4,4.3,7.3,9.9,8.6,15.9s0.6,12.3-1.7,18c-2.3,5.7-6.3,10.6-11.4,14c-5.1,3.4-11.1,5.3-17.3,5.3L110,60.7L78.9,60.8z"/>
	</mask>
	<path class="st3" d="M78.9,60.8c0-6.2,1.8-12.2,5.2-17.3c3.4-5.1,8.3-9.1,13.9-11.5c5.7-2.4,11.9-3,18-1.8c6,1.2,11.6,4.1,15.9,8.5
		c4.4,4.3,7.3,9.9,8.6,15.9s0.6,12.3-1.7,18c-2.3,5.7-6.3,10.6-11.4,14c-5.1,3.4-11.1,5.3-17.3,5.3L110,60.7L78.9,60.8z"/>
</g>
</svg>
