<?xml version="1.0" encoding="utf-8"?>
<!-- Generator: Adobe Illustrator 25.0.0, SVG Export Plug-In . SVG Version: 6.00 Build 0)  -->
<svg version="1.1" id="Layer_1" xmlns="http://www.w3.org/2000/svg" xmlns:xlink="http://www.w3.org/1999/xlink" x="0px" y="0px"
	 viewBox="0 0 150 150" style="enable-background:new 0 0 150 150;" xml:space="preserve">
<style type="text/css">
	.st0{fill:none;stroke:#FFFFFF;stroke-width:5;stroke-opacity:0.27;}
</style>
<g>
	<path class="st0" d="M97.5,75c0,9-2.6,17.8-7.5,25.3s-11.8,13.3-19.9,16.8c-8.1,3.4-17,4.3-25.6,2.6c-8.6-1.8-16.5-6.1-22.7-12.5
		S11.4,92.7,9.7,83.9s-0.8-18,2.5-26.3s9-15.4,16.3-20.4s15.8-7.7,24.6-7.7V75H97.5z"/>
	<path class="st0" d="M78.9,60.8c0-6.2,1.8-12.2,5.2-17.3c3.4-5.1,8.3-9.1,13.9-11.5c5.7-2.4,11.9-3,18-1.8c6,1.2,11.6,4.1,15.9,8.5
		c4.4,4.3,7.3,9.9,8.6,15.9s0.6,12.3-1.7,18s-6.3,10.6-11.4,14s-11.1,5.3-17.3,5.3L110,60.7L78.9,60.8z"/>
</g>
</svg>
